<svg width="1044" height="744" viewBox="0 0 1044 744" fill="none" xmlns="http://www.w3.org/2000/svg">
<path d="M110.34 427.986C114.299 416.482 125.124 408.76 137.289 408.76H897.127C909.02 408.76 919.662 416.145 923.825 427.286L1027.21 704.026C1034.17 722.653 1020.39 742.5 1000.51 742.5H42.0511C22.4818 742.5 8.7342 723.23 15.1023 704.726L110.34 427.986Z" fill="#FAFAFA" stroke="black" stroke-width="3"/>
<path d="M89.156 489.457L90.9852 485.469L943.601 486.023L945.478 490.563L89.156 489.457Z" stroke="black"/>
<path d="M102.137 453.996L103.922 450.424L932.936 451.947L934.06 454.756L102.137 453.996Z" stroke="black"/>
<rect x="103.398" y="6.5" width="825.87" height="446.922" rx="29.5" fill="#FAFAFA" stroke="black" stroke-width="3"/>
<rect x="132.545" y="33.118" width="768.838" height="394.959" rx="23.5" fill="#FAFAFA" stroke="black" stroke-width="3"/>
<path d="M252.579 297.525C253.034 297.358 253.437 297.871 253.167 298.273L250.784 301.821C250.421 302.361 250.448 303.072 250.849 303.583L253.487 306.946C253.786 307.327 253.423 307.868 252.957 307.736L248.846 306.566C248.221 306.388 247.552 306.633 247.19 307.173L244.807 310.721C244.537 311.123 243.911 310.945 243.893 310.461L243.735 306.189C243.711 305.54 243.271 304.98 242.646 304.802L238.535 303.632C238.069 303.5 238.045 302.849 238.5 302.682L242.513 301.212C243.123 300.988 243.52 300.397 243.496 299.748L243.338 295.477C243.32 294.992 243.932 294.768 244.231 295.149L246.87 298.512C247.271 299.023 247.956 299.218 248.566 298.995L252.579 297.525Z" fill="white" stroke="black"/>
<path d="M253.081 297.406C253.536 297.24 253.938 297.752 253.668 298.155L251.286 301.703C250.923 302.243 250.95 302.954 251.351 303.465L253.989 306.828C254.288 307.209 253.925 307.75 253.459 307.618L249.348 306.448C248.723 306.27 248.054 306.515 247.692 307.054L245.309 310.603C245.039 311.005 244.412 310.827 244.395 310.343L244.237 306.071C244.213 305.422 243.773 304.862 243.148 304.684L239.037 303.514C238.571 303.382 238.547 302.731 239.002 302.564L243.015 301.094C243.625 300.87 244.022 300.279 243.998 299.63L243.84 295.358C243.822 294.874 244.434 294.65 244.733 295.031L247.372 298.394C247.773 298.905 248.458 299.1 249.068 298.877L253.081 297.406Z" fill="white" stroke="black"/>
<path d="M190.851 281.655C190.677 280.212 192.452 279.391 193.44 280.456L199.493 286.982C200.23 287.776 201.394 288.006 202.377 287.551L210.454 283.81C211.773 283.2 213.102 284.633 212.394 285.902L208.058 293.676C207.531 294.622 207.672 295.8 208.409 296.594L214.462 303.12C215.45 304.186 214.498 305.893 213.072 305.612L204.339 303.89C203.276 303.681 202.199 304.179 201.672 305.125L197.336 312.899C196.628 314.168 194.71 313.79 194.536 312.347L193.475 303.509C193.346 302.434 192.539 301.564 191.476 301.355L182.743 299.633C181.317 299.352 181.084 297.411 182.403 296.8L190.48 293.06C191.463 292.604 192.041 291.568 191.912 290.493L190.851 281.655Z" fill="white" stroke="black"/>
<path d="M190.851 280.601C190.677 279.158 192.452 278.336 193.44 279.402L199.493 285.928C200.23 286.722 201.394 286.951 202.377 286.496L210.454 282.756C211.773 282.145 213.102 283.579 212.394 284.848L208.058 292.622C207.531 293.567 207.672 294.745 208.409 295.54L214.462 302.066C215.45 303.131 214.498 304.839 213.072 304.558L204.339 302.836C203.276 302.626 202.199 303.125 201.672 304.071L197.336 311.845C196.628 313.114 194.71 312.736 194.536 311.293L193.475 302.455C193.346 301.379 192.539 300.51 191.476 300.3L182.743 298.578C181.317 298.297 181.084 296.356 182.403 295.746L190.48 292.005C191.463 291.55 192.041 290.514 191.912 289.438L190.851 280.601Z" fill="white" stroke="black"/>
<path d="M210.606 245.248C210.564 244.765 211.165 244.512 211.482 244.878L214.28 248.109C214.705 248.6 215.399 248.762 215.997 248.509L219.935 246.846C220.381 246.658 220.808 247.15 220.558 247.565L218.349 251.225C218.014 251.781 218.074 252.49 218.5 252.982L221.298 256.213C221.615 256.579 221.278 257.137 220.807 257.027L216.644 256.058C216.011 255.91 215.355 256.187 215.019 256.744L212.811 260.404C212.561 260.818 211.926 260.67 211.885 260.188L211.52 255.929C211.465 255.282 210.999 254.743 210.366 254.596L206.203 253.627C205.731 253.517 205.675 252.868 206.122 252.679L210.059 251.016C210.658 250.764 211.026 250.154 210.97 249.507L210.606 245.248Z" fill="white" stroke="black"/>
<path d="M210.623 244.732C210.582 244.249 211.182 243.996 211.499 244.362L214.298 247.593C214.723 248.084 215.416 248.246 216.015 247.993L219.953 246.33C220.399 246.142 220.825 246.634 220.575 247.049L218.367 250.709C218.031 251.265 218.092 251.975 218.517 252.466L221.316 255.697C221.633 256.063 221.296 256.621 220.824 256.511L216.661 255.542C216.028 255.395 215.372 255.672 215.037 256.228L212.828 259.888C212.578 260.302 211.944 260.155 211.902 259.672L211.538 255.413C211.482 254.766 211.016 254.228 210.383 254.08L206.22 253.111C205.748 253.001 205.693 252.352 206.139 252.163L210.077 250.501C210.675 250.248 211.043 249.638 210.988 248.991L210.623 244.732Z" fill="white" stroke="black"/>
<path d="M838.785 132.422C839.062 132.819 838.669 133.339 838.211 133.18L834.172 131.781C833.558 131.568 832.877 131.775 832.485 132.293L829.906 135.702C829.614 136.088 828.998 135.875 829.008 135.391L829.09 131.117C829.103 130.468 828.696 129.884 828.082 129.671L824.043 128.272C823.585 128.113 823.598 127.462 824.061 127.321L828.151 126.079C828.773 125.89 829.202 125.322 829.215 124.673L829.297 120.399C829.307 119.915 829.93 119.725 830.207 120.123L832.653 123.629C833.024 124.162 833.697 124.395 834.319 124.206L838.409 122.964C838.872 122.823 839.245 123.358 838.953 123.744L836.374 127.153C835.982 127.671 835.968 128.383 836.34 128.916L838.785 132.422Z" fill="white" stroke="black"/>
<path d="M839.027 132.877C839.304 133.274 838.911 133.794 838.454 133.636L834.415 132.236C833.801 132.024 833.119 132.231 832.727 132.749L830.149 136.158C829.856 136.544 829.241 136.331 829.25 135.846L829.333 131.573C829.345 130.923 828.938 130.339 828.324 130.127L824.285 128.727C823.827 128.569 823.84 127.917 824.303 127.777L828.393 126.534C829.015 126.346 829.445 125.778 829.457 125.128L829.54 120.855C829.549 120.37 830.173 120.181 830.45 120.578L832.895 124.084C833.267 124.617 833.939 124.85 834.561 124.661L838.651 123.419C839.114 123.279 839.487 123.813 839.195 124.199L836.616 127.608C836.224 128.126 836.21 128.838 836.582 129.371L839.027 132.877Z" fill="white" stroke="black"/>
<path d="M874.149 135.562C873.999 137.007 872.087 137.416 871.359 136.158L865.706 126.392C865.164 125.455 864.079 124.973 863.02 125.199L851.985 127.558C850.564 127.862 849.585 126.169 850.556 125.089L858.097 116.694C858.821 115.889 858.944 114.709 858.401 113.771L852.748 104.005C852.02 102.747 853.327 101.293 854.655 101.883L864.969 106.461C865.958 106.9 867.119 106.652 867.843 105.847L875.384 97.4523C876.355 96.3714 878.142 97.1646 877.992 98.6099L876.825 109.834C876.713 110.911 877.307 111.938 878.297 112.377L888.611 116.956C889.939 117.545 889.737 119.49 888.316 119.793L877.281 122.152C876.221 122.378 875.428 123.261 875.316 124.338L874.149 135.562Z" fill="white" stroke="black"/>
<path d="M873.882 136.739C873.732 138.184 871.82 138.593 871.092 137.335L865.439 127.569C864.896 126.631 863.812 126.15 862.753 126.376L851.717 128.735C850.296 129.038 849.317 127.346 850.288 126.265L857.829 117.871C858.553 117.066 858.676 115.885 858.133 114.948L852.48 105.182C851.752 103.924 853.059 102.47 854.387 103.059L864.701 107.638C865.691 108.077 866.851 107.829 867.575 107.023L875.116 98.6292C876.087 97.5483 877.874 98.3415 877.724 99.7868L876.557 111.011C876.445 112.088 877.039 113.115 878.029 113.554L888.343 118.132C889.671 118.722 889.469 120.667 888.048 120.97L877.013 123.329C875.954 123.555 875.161 124.438 875.049 125.515L873.882 136.739Z" fill="white" stroke="black"/>
<path d="M82 370C82 361.83 82 270.304 82 225.562M82 211.726L82 202" stroke="black" stroke-width="3" stroke-linecap="round"/>
<path d="M82.2733 102L82.2773 92" stroke="black" stroke-width="3" stroke-linecap="round"/>
<path d="M82 191L82 108" stroke="black" stroke-width="3" stroke-linecap="round"/>
<path d="M942 2C944.667 3.5 950.1 8.6 950.5 17C950.9 25.4 950.667 119.5 950.5 165.5" stroke="black" stroke-width="3" stroke-linecap="round"/>
<path d="M950.5 176.5C950.9 184.9 950.5 230.5 950.5 230.5" stroke="black" stroke-width="3" stroke-linecap="round"/>
</svg>
