<svg width="1229" height="1024" viewBox="0 0 1229 1024" fill="none" xmlns="http://www.w3.org/2000/svg">
<path d="M338.172 554.824C218.845 543.147 88.8196 187.508 0 2.77652L121.716 -23C186.85 115.728 329.883 399.198 380.937 423.256C444.756 453.329 581.604 237.987 721.741 237.987C833.852 237.987 1106.63 823.329 1229 1116H1033.6C949.821 875.061 759.506 390.606 668.45 380.295C554.629 367.407 457.5 566.5 338.172 554.824Z" fill="#FAFAFA"/>
<path d="M338.172 554.824C218.845 543.147 88.8196 187.508 0 2.77652L121.716 -23C186.85 115.728 329.883 399.198 380.937 423.256C444.756 453.329 581.604 237.987 721.741 237.987C833.852 237.987 1106.63 823.329 1229 1116H1033.6C949.821 875.061 759.506 390.606 668.45 380.295C554.629 367.407 457.5 566.5 338.172 554.824Z" fill="black" fill-opacity="0.05"/>
</svg>
